# Blender v3.0.1 OBJ File: 'table.blend'
# www.blender.org
mtllib table.mtl
o Cube
v 1.000000 2.026420 -2.000000
v 1.000000 1.766420 -2.000000
v 1.000000 2.026420 2.000000
v 1.000000 1.766420 2.000000
v -1.000000 2.026420 -2.000000
v -1.000000 1.766420 -2.000000
v -1.000000 2.026420 2.000000
v -1.000000 1.766420 2.000000
v -1.000000 1.766420 1.694451
v 1.000000 2.026420 1.694451
v -1.000000 2.026420 1.694451
v 1.000000 1.766420 1.694451
v -1.000000 2.026420 -1.693821
v 1.000000 1.766420 -1.693821
v -1.000000 1.766420 -1.693821
v 1.000000 2.026420 -1.693821
v 0.712909 1.766420 -2.000000
v 0.712909 2.026420 2.000000
v 0.712909 1.766420 2.000000
v 0.712909 2.026420 -2.000000
v 0.712909 1.766420 1.694451
v 0.712909 2.026420 1.694451
v 0.712909 2.026420 -1.693821
v 0.712909 1.766420 -1.693821
v -0.723997 1.766420 -2.000000
v -0.723997 2.026420 2.000000
v -0.723997 1.766420 1.694451
v -0.723997 1.766420 -1.693821
v -0.723997 1.766420 2.000000
v -0.723997 2.026420 -2.000000
v -0.723997 2.026420 1.694451
v -0.723997 2.026420 -1.693821
v -1.000000 0.282410 1.694451
v -1.000000 0.282410 2.000000
v -0.723997 0.282410 -2.000000
v -1.000000 0.282410 -2.000000
v 0.712909 0.282410 2.000000
v 1.000000 0.282410 2.000000
v 1.000000 0.282410 -1.693821
v 1.000000 0.282410 -2.000000
v 1.000000 0.282410 1.694451
v -0.723997 0.282410 1.694451
v -1.000000 0.282410 -1.693821
v -0.723997 0.282410 -1.693821
v 0.712909 0.282410 -2.000000
v 0.712909 0.282410 1.694451
v 0.712909 0.282410 -1.693821
v -0.723997 0.282410 2.000000
vt 0.840500 0.730903
vt 0.875000 0.730903
vt 0.875000 0.750000
vt 0.840500 0.750000
vt 0.375000 0.965500
vt 0.625000 0.965500
vt 0.625000 1.000000
vt 0.375000 1.000000
vt 0.375000 0.230864
vt 0.625000 0.230864
vt 0.625000 0.250000
vt 0.375000 0.250000
vt 0.375000 0.284500
vt 0.375000 0.284500
vt 0.375000 0.250000
vt 0.375000 0.730903
vt 0.625000 0.730903
vt 0.625000 0.750000
vt 0.375000 0.750000
vt 0.375000 0.464114
vt 0.625000 0.464114
vt 0.625000 0.500000
vt 0.375000 0.500000
vt 0.375000 0.519136
vt 0.625000 0.519136
vt 0.339114 0.519136
vt 0.339114 0.730903
vt 0.375000 0.000000
vt 0.625000 0.000000
vt 0.625000 0.019097
vt 0.375000 0.019097
vt 0.840500 0.519136
vt 0.875000 0.519136
vt 0.840500 0.500000
vt 0.875000 0.500000
vt 0.375000 0.785886
vt 0.375000 0.785886
vt 0.375000 0.750000
vt 0.159500 0.500000
vt 0.339114 0.500000
vt 0.159500 0.519136
vt 0.660886 0.500000
vt 0.660886 0.519136
vt 0.660886 0.730903
vt 0.159500 0.730903
vt 0.625000 0.284500
vt 0.339114 0.750000
vt 0.159500 0.750000
vt 0.625000 0.785886
vt 0.660886 0.750000
vt 0.375000 0.730903
vt 0.125000 0.519136
vt 0.125000 0.730903
vt 0.159500 0.750000
vt 0.159500 0.730903
vt 0.339114 0.730903
vt 0.339114 0.750000
vt 0.339114 0.500000
vt 0.375000 0.500000
vt 0.375000 0.519136
vt 0.339114 0.519136
vt 0.125000 0.730903
vt 0.125000 0.750000
vt 0.125000 0.500000
vt 0.159500 0.500000
vt 0.159500 0.519136
vt 0.125000 0.519136
vt 0.375000 1.000000
vt 0.375000 0.965500
vt 0.375000 0.464114
vt 0.375000 0.230864
vt 0.375000 0.019097
vt 0.375000 0.000000
vn 0.0000 1.0000 0.0000
vn 0.0000 0.0000 1.0000
vn -1.0000 0.0000 0.0000
vn 0.0000 0.0000 -1.0000
vn 1.0000 0.0000 0.0000
vn 0.0000 -1.0000 0.0000
usemtl Material
s off
f 31/1/1 11/2/1 7/3/1 26/4/1
f 29/5/2 26/6/2 7/7/2 8/8/2
f 15/9/3 13/10/3 5/11/3 6/12/3
f 6/12/4 25/13/4 35/14/4 36/15/4
f 12/16/5 10/17/5 3/18/5 4/19/5
f 17/20/4 20/21/4 1/22/4 2/23/4
f 14/24/5 16/25/5 10/17/5 12/16/5
f 24/26/6 14/24/6 12/16/6 21/27/6
f 8/28/3 7/29/3 11/30/3 9/31/3
f 32/32/1 13/33/1 11/2/1 31/1/1
f 30/34/1 5/35/1 13/33/1 32/32/1
f 4/19/2 19/36/2 37/37/2 38/38/2
f 2/23/5 1/22/5 16/25/5 14/24/5
f 9/31/3 11/30/3 13/10/3 15/9/3
f 25/39/6 17/40/6 24/26/6 28/41/6
f 1/22/1 20/42/1 23/43/1 16/25/1
f 16/25/1 23/43/1 22/44/1 10/17/1
f 28/41/6 24/26/6 21/27/6 27/45/6
f 25/13/4 30/46/4 20/21/4 17/20/4
f 27/45/6 21/27/6 19/47/6 29/48/6
f 4/19/2 3/18/2 18/49/2 19/36/2
f 10/17/1 22/44/1 18/50/1 3/18/1
f 12/16/5 4/19/5 38/38/5 41/51/5
f 6/12/4 5/11/4 30/46/4 25/13/4
f 15/52/6 28/41/6 27/45/6 9/53/6
f 27/45/5 29/48/5 48/54/5 42/55/5
f 20/42/1 30/34/1 32/32/1 23/43/1
f 23/43/1 32/32/1 31/1/1 22/44/1
f 19/36/2 18/49/2 26/6/2 29/5/2
f 22/44/1 31/1/1 26/4/1 18/50/1
f 46/56/6 41/51/6 38/38/6 37/57/6
f 45/58/6 40/59/6 39/60/6 47/61/6
f 33/62/6 42/55/6 48/54/6 34/63/6
f 36/64/6 35/65/6 44/66/6 43/67/6
f 9/53/4 27/45/4 42/55/4 33/62/4
f 21/27/4 12/16/4 41/51/4 46/56/4
f 28/41/2 15/52/2 43/67/2 44/66/2
f 25/39/5 28/41/5 44/66/5 35/65/5
f 29/5/2 8/8/2 34/68/2 48/69/2
f 2/23/5 14/24/5 39/60/5 40/59/5
f 19/47/3 21/27/3 46/56/3 37/57/3
f 14/24/2 24/26/2 47/61/2 39/60/2
f 17/20/4 2/23/4 40/59/4 45/70/4
f 24/26/3 17/40/3 45/58/3 47/61/3
f 15/9/3 6/12/3 36/15/3 43/71/3
f 8/28/3 9/31/3 33/72/3 34/73/3
